<svg width="254" height="26" viewBox="0 0 254 26" fill="none" xmlns="http://www.w3.org/2000/svg">
<path d="M29.0404 1.08852V24.7358L20.5547 14.2533L20.5574 11.5689L29.0404 1.08852Z" fill="black"/>
<path d="M19.7215 9.60036L15.4612 12.1102H3.64899L0 9.97152L7.9524 0.149208H27.3721L19.7215 9.60036Z" fill="black"/>
<path d="M0.0267018 15.8836L3.72396 13.7141H15.3973L19.7164 16.2149L27.3722 25.6752H7.95232L0.0267018 15.8836Z" fill="black"/>
<path d="M47.5074 25.5461C45.321 25.5461 43.3678 25.2385 41.6479 24.6233C39.9372 24.0001 38.5924 23.1582 37.6135 22.0979C36.6438 21.0294 36.159 19.8233 36.159 18.4796C36.159 17.4516 36.438 16.5086 36.996 15.6506C37.5541 14.7926 38.3088 14.0803 39.2602 13.5137C40.2208 12.939 41.2912 12.5707 42.4713 12.4088V12.2145C40.9252 11.9636 39.6582 11.3282 38.6702 10.3083C37.6913 9.28839 37.2019 8.09446 37.2019 6.72649C37.2019 5.43138 37.6456 4.27792 38.5329 3.26611C39.4295 2.25431 40.6508 1.457 42.1968 0.874201C43.7521 0.2914 45.5223 0 47.5074 0C49.4926 0 51.2582 0.2914 52.8043 0.874201C54.3595 1.457 55.5808 2.25431 56.4682 3.26611C57.3647 4.27792 57.813 5.43138 57.813 6.72649C57.813 8.10255 57.3144 9.30053 56.3173 10.3204C55.3292 11.3322 54.0714 11.9636 52.5436 12.2145V12.4088C53.7146 12.5707 54.7758 12.939 55.7272 13.5137C56.6878 14.0803 57.4471 14.7926 58.0051 15.6506C58.5723 16.5086 58.8559 17.4516 58.8559 18.4796C58.8559 19.8233 58.3665 21.0294 57.3876 22.0979C56.4088 23.1582 55.0639 24.0001 53.3532 24.6233C51.6516 25.2385 49.703 25.5461 47.5074 25.5461ZM47.5074 21.2844C48.3399 21.2844 49.0718 21.1468 49.703 20.8716C50.3343 20.5882 50.8283 20.1957 51.1851 19.6938C51.551 19.192 51.734 18.6253 51.734 17.994C51.734 17.3464 51.551 16.7717 51.1851 16.2699C50.8191 15.768 50.316 15.3754 49.6756 15.0921C49.0444 14.8007 48.3216 14.655 47.5074 14.655C46.7024 14.655 45.9797 14.8007 45.3393 15.0921C44.6989 15.3754 44.1957 15.768 43.8298 16.2699C43.4639 16.7717 43.2809 17.3464 43.2809 17.994C43.2809 18.6253 43.4593 19.192 43.8161 19.6938C44.182 20.1876 44.6806 20.5761 45.3118 20.8594C45.9522 21.1427 46.6841 21.2844 47.5074 21.2844ZM47.5074 10.4176C48.221 10.4176 48.8522 10.2881 49.4011 10.029C49.9592 9.77001 50.3937 9.4098 50.7048 8.94842C51.025 8.48704 51.1851 7.96494 51.1851 7.38214C51.1851 6.79934 51.025 6.28534 50.7048 5.84015C50.3937 5.39495 49.9638 5.04689 49.4149 4.79596C48.866 4.53694 48.2302 4.40743 47.5074 4.40743C46.7939 4.40743 46.1581 4.53694 45.6 4.79596C45.042 5.04689 44.6074 5.39495 44.2964 5.84015C43.9853 6.28534 43.8298 6.79934 43.8298 7.38214C43.8298 7.96494 43.9853 8.48704 44.2964 8.94842C44.6166 9.40171 45.0557 9.76191 45.6137 10.029C46.1718 10.2881 46.803 10.4176 47.5074 10.4176Z" fill="black"/>
<path d="M69.4908 0.339967V25.2061H62.6982V0.339967H69.4908Z" fill="black"/>
<path d="M97.248 7.79496C97.1565 6.90457 96.7494 6.21249 96.0266 5.71873C95.3131 5.21688 94.2931 4.96595 92.9665 4.96595C92.0883 4.96595 91.3564 5.06713 90.771 5.26949C90.1855 5.47185 89.7463 5.75111 89.4536 6.10727C89.1609 6.45533 89.0099 6.856 89.0007 7.30929C88.9825 7.68164 89.0648 8.00946 89.2478 8.29277C89.4399 8.57607 89.7143 8.827 90.0711 9.04556C90.437 9.25601 90.8762 9.44218 91.3885 9.60407C91.9008 9.76596 92.4771 9.90761 93.1175 10.029L95.5327 10.5147C96.9232 10.7818 98.1491 11.138 99.2103 11.5832C100.281 12.0284 101.177 12.5585 101.9 13.1737C102.632 13.7889 103.185 14.4972 103.56 15.2985C103.935 16.0999 104.127 16.9984 104.137 17.994C104.127 19.5643 103.679 20.912 102.792 22.0372C101.904 23.1623 100.628 24.0243 98.9633 24.6233C97.3074 25.2223 95.3085 25.5218 92.9665 25.5218C90.6154 25.5218 88.5662 25.2102 86.8189 24.5869C85.0715 23.9636 83.713 23.0166 82.7433 21.7458C81.7736 20.4749 81.275 18.8682 81.2476 16.9255H87.752C87.8069 17.7269 88.0493 18.3946 88.4793 18.9289C88.9093 19.4631 89.4993 19.8678 90.2495 20.143C91.0088 20.4183 91.887 20.5559 92.8842 20.5559C93.799 20.5559 94.5767 20.4466 95.217 20.228C95.8666 20.0095 96.3651 19.706 96.7128 19.3174C97.0604 18.9289 97.2388 18.4837 97.248 17.9818C97.2388 17.5124 97.0741 17.1117 96.754 16.7798C96.4338 16.4398 95.9398 16.1484 95.2719 15.9056C94.6132 15.6547 93.7716 15.424 92.747 15.2135L89.8104 14.6064C87.3769 14.1127 85.4604 13.3154 84.0607 12.2145C82.661 11.1056 81.9657 9.60812 81.9749 7.72211C81.9657 6.18416 82.4323 4.83644 83.3745 3.67893C84.3168 2.52142 85.6204 1.61889 87.2854 0.971336C88.9504 0.323779 90.8487 0 92.9803 0C95.1576 0 97.0467 0.327825 98.6476 0.983476C100.258 1.63103 101.506 2.54166 102.394 3.71536C103.281 4.88905 103.734 6.24892 103.752 7.79496H97.248Z" fill="black"/>
<path d="M106.648 5.22092V0.339967H130.401V5.22092H121.88V25.2061H115.183V5.22092H106.648Z" fill="black"/>
<path d="M150.721 0.339967H157.5V16.3791C157.5 18.2328 157.001 19.8476 156.004 21.2237C155.007 22.5916 153.616 23.652 151.833 24.4048C150.049 25.1495 147.976 25.5218 145.616 25.5218C143.229 25.5218 141.143 25.1495 139.359 24.4048C137.575 23.652 136.189 22.5916 135.201 21.2237C134.213 19.8476 133.719 18.2328 133.719 16.3791V0.339967H140.511V15.857C140.511 16.7151 140.722 17.48 141.143 18.1518C141.573 18.8237 142.172 19.3498 142.94 19.7302C143.709 20.1107 144.601 20.3009 145.616 20.3009C146.632 20.3009 147.519 20.1107 148.278 19.7302C149.047 19.3498 149.646 18.8237 150.076 18.1518C150.506 17.48 150.721 16.7151 150.721 15.857V0.339967Z" fill="black"/>
<path d="M172.145 25.2061H161.757V0.339967H172.131C174.995 0.339967 177.46 0.837777 179.528 1.8334C181.605 2.82092 183.206 4.24554 184.331 6.10727C185.456 7.9609 186.019 10.1788 186.019 12.7609C186.019 15.3511 185.456 17.5771 184.331 19.4388C183.215 21.3006 181.618 22.7292 179.542 23.7248C177.465 24.7124 174.999 25.2061 172.145 25.2061ZM168.55 20.0823H171.884C173.458 20.0823 174.789 19.8476 175.878 19.3781C176.975 18.9006 177.803 18.1275 178.361 17.0591C178.929 15.9825 179.212 14.5498 179.212 12.7609C179.212 10.972 178.929 9.54741 178.361 8.48704C177.794 7.41857 176.957 6.6496 175.85 6.18012C174.752 5.70254 173.399 5.46376 171.788 5.46376H168.55V20.0823Z" fill="black"/>
<path d="M196.777 0.339967V25.2061H189.984V0.339967H196.777Z" fill="black"/>
<path d="M227.567 12.7731C227.567 15.509 226.972 17.828 225.783 19.7302C224.594 21.6324 222.984 23.0773 220.953 24.0648C218.931 25.0523 216.662 25.5461 214.146 25.5461C211.621 25.5461 209.348 25.0483 207.326 24.0527C205.304 23.0571 203.699 21.6122 202.51 19.7181C201.329 17.8159 200.739 15.5009 200.739 12.7731C200.739 10.0371 201.329 7.71806 202.51 5.81587C203.699 3.91367 205.304 2.46881 207.326 1.48129C209.348 0.493762 211.621 0 214.146 0C216.662 0 218.931 0.493762 220.953 1.48129C222.984 2.46881 224.594 3.91367 225.783 5.81587C226.972 7.71806 227.567 10.0371 227.567 12.7731ZM220.623 12.7731C220.623 11.1542 220.363 9.7862 219.841 8.66916C219.329 7.55213 218.588 6.70626 217.618 6.13155C216.657 5.55684 215.5 5.26949 214.146 5.26949C212.801 5.26949 211.644 5.55684 210.674 6.13155C209.705 6.70626 208.959 7.55213 208.438 8.66916C207.925 9.7862 207.669 11.1542 207.669 12.7731C207.669 14.3919 207.925 15.7599 208.438 16.8769C208.959 17.994 209.705 18.8398 210.674 19.4146C211.644 19.9893 212.801 20.2766 214.146 20.2766C215.5 20.2766 216.657 19.9893 217.618 19.4146C218.588 18.8398 219.329 17.994 219.841 16.8769C220.363 15.7599 220.623 14.3919 220.623 12.7731Z" fill="black"/>
<path d="M246.723 7.79496C246.632 6.90457 246.225 6.21249 245.502 5.71873C244.789 5.21688 243.768 4.96595 242.442 4.96595C241.564 4.96595 240.832 5.06713 240.246 5.26949C239.661 5.47185 239.222 5.75111 238.929 6.10727C238.636 6.45533 238.485 6.856 238.476 7.30929C238.458 7.68164 238.54 8.00946 238.723 8.29277C238.915 8.57607 239.19 8.827 239.547 9.04556C239.912 9.25601 240.352 9.44218 240.864 9.60407C241.376 9.76596 241.953 9.90761 242.593 10.029L245.008 10.5147C246.399 10.7818 247.624 11.138 248.686 11.5832C249.756 12.0284 250.653 12.5585 251.375 13.1737C252.107 13.7889 252.661 14.4972 253.036 15.2985C253.411 16.0999 253.603 16.9984 253.612 17.994C253.603 19.5643 253.155 20.912 252.267 22.0372C251.38 23.1623 250.104 24.0243 248.439 24.6233C246.783 25.2223 244.784 25.5218 242.442 25.5218C240.091 25.5218 238.042 25.2102 236.294 24.5869C234.547 23.9636 233.188 23.0166 232.219 21.7458C231.249 20.4749 230.75 18.8682 230.723 16.9255H237.227C237.282 17.7269 237.525 18.3946 237.955 18.9289C238.385 19.4631 238.975 19.8678 239.725 20.143C240.484 20.4183 241.362 20.5559 242.36 20.5559C243.274 20.5559 244.052 20.4466 244.692 20.228C245.342 20.0095 245.841 19.706 246.188 19.3174C246.536 18.9289 246.714 18.4837 246.723 17.9818C246.714 17.5124 246.55 17.1117 246.229 16.7798C245.909 16.4398 245.415 16.1484 244.747 15.9056C244.089 15.6547 243.247 15.424 242.222 15.2135L239.286 14.6064C236.852 14.1127 234.936 13.3154 233.536 12.2145C232.136 11.1056 231.441 9.60812 231.45 7.72211C231.441 6.18416 231.908 4.83644 232.85 3.67893C233.792 2.52142 235.096 1.61889 236.761 0.971336C238.426 0.323779 240.324 0 242.456 0C244.633 0 246.522 0.327825 248.123 0.983476C249.733 1.63103 250.982 2.54166 251.869 3.71536C252.757 4.88905 253.21 6.24892 253.228 7.79496H246.723Z" fill="black"/>
</svg>
