<?xml version="1.0" encoding="UTF-8"?><svg id="Layer_1" xmlns="http://www.w3.org/2000/svg" viewBox="0 0 249.5 213"><defs><style>.cls-1{fill:#79c479;}.cls-2{fill:#fff;}.cls-3{fill:#40fd8c;}</style></defs><path class="cls-2" d="M50.75,113.75h-30.02c-1.2,0-2.09-.25-2.66-.76-.51-.57-.76-1.46-.76-2.66v-11.12c0-1.2.25-2.06.76-2.56.57-.57,1.46-.86,2.66-.86h25.56c.82,0,1.42-.25,1.81-.76.44-.57.67-1.24.67-2,0-1.08-.22-1.87-.67-2.38-.38-.51-.98-.79-1.81-.86l-14.25-1.99c-4.43-.63-8.01-2.09-10.74-4.37-2.66-2.28-3.99-6.08-3.99-11.4v-9.97c0-5.38,1.74-9.5,5.22-12.35,3.48-2.91,8.3-4.37,14.44-4.37h26.6c1.2,0,2.06.28,2.57.86.57.51.85,1.36.85,2.56v11.31c0,1.2-.28,2.09-.85,2.66-.51.51-1.36.76-2.57.76h-22.14c-.82,0-1.46.28-1.9.85-.44.51-.67,1.17-.67,2s.22,1.52.67,2.09c.44.57,1.08.89,1.9.95l14.15,1.9c4.43.63,8.01,2.09,10.74,4.37,2.72,2.28,4.08,6.08,4.08,11.4v9.97c0,5.38-1.77,9.53-5.32,12.44-3.48,2.85-8.26,4.28-14.34,4.28ZM126.42,113.75h-15.39c-1.2,0-2.09-.25-2.66-.76-.51-.57-.76-1.46-.76-2.66v-46.65h-13.96c-1.2,0-2.09-.25-2.66-.76-.51-.57-.76-1.46-.76-2.66v-11.49c0-1.2.25-2.06.76-2.56.57-.57,1.46-.86,2.66-.86h50.16c1.2,0,2.06.28,2.57.86.57.51.85,1.36.85,2.56v11.49c0,1.2-.29,2.09-.85,2.66-.51.51-1.36.76-2.57.76h-13.96v46.65c0,1.2-.29,2.09-.85,2.66-.51.51-1.36.76-2.57.76ZM228.95,95.79c0,2.91-.44,5.57-1.33,7.98-.82,2.34-2.34,4.37-4.56,6.08-2.15,1.65-5.13,2.94-8.93,3.89s-8.65,1.43-14.54,1.43-10.74-.48-14.54-1.43-6.81-2.25-9.02-3.89c-2.15-1.71-3.67-3.74-4.56-6.08-.82-2.41-1.24-5.07-1.24-7.98v-47.02c0-1.2.25-2.06.76-2.56.57-.57,1.46-.86,2.66-.86h14.91c1.2,0,2.06.28,2.57.86.57.51.85,1.36.85,2.56v43.32c0,1.27.48,2.34,1.43,3.23.95.82,3.07,1.24,6.37,1.24s5.51-.41,6.46-1.24c.95-.89,1.43-1.96,1.43-3.23v-43.32c0-1.2.25-2.06.76-2.56.57-.57,1.46-.86,2.66-.86h14.44c1.2,0,2.06.28,2.57.86.57.51.85,1.36.85,2.56v47.02ZM52.27,196.75H20.26c-1.2,0-2.09-.25-2.66-.76-.51-.57-.76-1.46-.76-2.66v-61.56c0-1.2.25-2.06.76-2.57.57-.57,1.46-.85,2.66-.85h32.01c7.92,0,13.78,1.58,17.58,4.75,3.86,3.17,5.79,8.04,5.79,14.63v29.64c0,6.59-1.93,11.46-5.79,14.63-3.8,3.17-9.66,4.75-17.58,4.75ZM38.4,146.49v32.3h11.3c1.52,0,2.63-.38,3.33-1.14.76-.76,1.14-1.93,1.14-3.51v-23.09c0-1.58-.38-2.72-1.14-3.42-.7-.76-1.81-1.14-3.33-1.14h-11.3ZM103.86,196.75c-1.2,0-2.09-.25-2.66-.76-.51-.57-.76-1.46-.76-2.66v-11.31c0-1.2.25-2.06.76-2.56.57-.57,1.46-.86,2.66-.86h9.41v-31.92h-9.41c-1.2,0-2.09-.25-2.66-.76-.51-.57-.76-1.46-.76-2.66v-11.49c0-1.2.25-2.06.76-2.57.57-.57,1.46-.85,2.66-.85h40.47c1.2,0,2.06.28,2.57.85.57.51.86,1.36.86,2.57v11.49c0,1.2-.29,2.09-.86,2.66-.51.51-1.36.76-2.57.76h-9.21v31.92h9.21c1.2,0,2.06.29,2.57.86.57.51.86,1.36.86,2.56v11.31c0,1.2-.29,2.09-.86,2.66-.51.51-1.36.76-2.57.76h-40.47ZM231.68,178.79c0,2.91-.44,5.57-1.33,7.98-.82,2.34-2.34,4.37-4.56,6.08-2.15,1.65-5.16,2.95-9.03,3.9-3.8.95-8.65,1.43-14.54,1.43s-10.77-.48-14.63-1.43c-3.86-.95-6.9-2.25-9.12-3.9-2.15-1.71-3.67-3.74-4.56-6.08-.82-2.41-1.24-5.07-1.24-7.98v-32.4c0-2.91.41-5.54,1.24-7.88.89-2.41,2.41-4.46,4.56-6.18,2.22-1.71,5.26-3.04,9.12-3.99,3.86-.95,8.74-1.43,14.63-1.43s10.74.47,14.54,1.43c3.86.95,6.87,2.28,9.03,3.99,2.22,1.71,3.74,3.77,4.56,6.18.89,2.34,1.33,4.97,1.33,7.88v32.4ZM194.25,175.37c0,1.27.48,2.34,1.43,3.23.95.82,3.13,1.24,6.55,1.24s5.61-.41,6.56-1.24c.95-.89,1.43-1.96,1.43-3.23v-25.55c0-1.2-.48-2.22-1.43-3.04-.95-.89-3.14-1.33-6.56-1.33s-5.6.44-6.55,1.33c-.95.82-1.43,1.84-1.43,3.04v25.55Z"/><path class="cls-1" d="M231.41,25.07v1.01c-1.17-.41-2.37-.76-3.6-1.01h3.6Z"/><path class="cls-3" d="M249.5,51.75v134c0,15.02-12.22,27.25-27.25,27.25H27.25c-15.02,0-27.25-12.23-27.25-27.25V51.75c0-13.77,10.26-25.18,23.54-26.99l.07-24.69h6.82v12.41h7.54c2.79-4.1,5.4-8.32,8.19-12.41h8.07s.12.09.06.12c-1.12,1.64-2.29,3.26-3.42,4.9-.95,1.37-1.9,2.77-2.84,4.13l-4.33,6.28,5.95,9,4.3,6.5h-8.25c-1.41-2.17-2.83-4.34-4.25-6.5-1.13-1.73-2.27-3.46-3.42-5.18h-7.6v11.68h-3.18c-11.44,0-20.75,9.31-20.75,20.75v134c0,11.44,9.31,20.75,20.75,20.75h195c11.44,0,20.75-9.31,20.75-20.75V51.75c0-11.44-9.31-20.75-20.75-20.75h-15.9l.02-6.5.07-24.43h6.76v24.43h9.05c1.9,0,3.76.2,5.56.57,1.23.25,2.43.6,3.6,1.01,10.53,3.77,18.09,13.85,18.09,25.67Z"/><path class="cls-3" d="M127.14,24.5l-.75-1.44c-.94-1.63-1.84-3.2-3.61-4.03-.22-.11-1.41-.47-1.43-.54-.01-.05-.01-.32,0-.33.03-.03.7-.05.82-.07,4.77-.72,7.75-3.35,7.86-8.33.17-7.03-5.49-9.67-11.7-9.69h-17.02v30.93h6.91v-6.5s-.01-4.44-.01-4.44c1.8.08,3.69-.11,5.48-.01,3.41.2,4.06,1.65,5.5,4.34.01.04.03.07.05.11.93,1.76,1.84,3.55,2.76,5.33.18.37.42.77.51,1.17h8.01l-3.38-6.5ZM118.88,14.74h-10.66V6.43h10.66c2.75.18,3.94,1.42,3.94,4.12.01,2.84-1.04,4.02-3.94,4.19Z"/><path class="cls-3" d="M165.84.16v6.27h-11.37v24.57h-6.84V6.43h-11.37V.16s.09-.09.09-.09h29.4s.09.08.09.09Z"/><path class="cls-3" d="M179.71,6.43v6.05h18.33v6.29h-18.33v6.3h19v5.93h-25.91l.02-6.5.08-24.43h25.72s.09.08.09.09v6.27h-19Z"/><path class="cls-3" d="M94.48,29.73c-.75-1.75-1.51-3.49-2.26-5.23-3.48-8.07-6.99-16.12-10.42-24.2-.08-.16-.19-.25-.38-.24-3.01.18-6.25-.21-9.23.01-.09,0-.26.01-.32.08l-10.38,24.35-2.77,6.5h7.7l2.74-6.5h.01s15.17-.03,15.17-.03l.02.03,2.77,6.5h7.82c-.12-.43-.3-.86-.47-1.27ZM71.8,18.16c.69-1.73,1.5-3.43,2.21-5.15.86-2.09,1.66-4.25,2.48-6.39.07-.2.29-.13.47-.14l4.8,11.68h-9.96Z"/></svg>