<?xml version="1.0" encoding="UTF-8"?><svg id="Layer_1" xmlns="http://www.w3.org/2000/svg" viewBox="0 0 249.5 213"><defs><style>.cls-1{fill:none;}.cls-2{fill:#7ac479;}.cls-3{fill:#79c479;}.cls-4{fill:#fff;}</style></defs><path class="cls-4" d="M50.74,113.75h-30.02c-1.2,0-2.09-.25-2.66-.76-.51-.57-.76-1.46-.76-2.66v-11.12c0-1.2.25-2.06.76-2.56.57-.57,1.46-.86,2.66-.86h25.56c.82,0,1.42-.25,1.81-.76.44-.57.67-1.24.67-2,0-1.08-.22-1.87-.67-2.38-.38-.51-.98-.79-1.81-.86l-14.25-1.99c-4.43-.63-8.01-2.09-10.74-4.37-2.66-2.28-3.99-6.08-3.99-11.4v-9.97c0-5.38,1.74-9.5,5.22-12.35,3.48-2.91,8.3-4.37,14.44-4.37h26.6c1.2,0,2.06.28,2.57.86.57.51.85,1.36.85,2.56v11.31c0,1.2-.28,2.09-.85,2.66-.51.51-1.36.76-2.57.76h-22.14c-.82,0-1.46.28-1.9.85-.44.51-.67,1.17-.67,2s.22,1.52.67,2.09c.44.57,1.08.89,1.9.95l14.15,1.9c4.43.63,8.01,2.09,10.74,4.37,2.72,2.28,4.08,6.08,4.08,11.4v9.97c0,5.38-1.77,9.53-5.32,12.44-3.48,2.85-8.26,4.28-14.34,4.28ZM126.42,113.75h-15.39c-1.2,0-2.09-.25-2.66-.76-.51-.57-.76-1.46-.76-2.66v-46.65h-13.96c-1.2,0-2.09-.25-2.66-.76-.51-.57-.76-1.46-.76-2.66v-11.49c0-1.2.25-2.06.76-2.56.57-.57,1.46-.86,2.66-.86h50.16c1.2,0,2.06.28,2.57.86.57.51.85,1.36.85,2.56v11.49c0,1.2-.29,2.09-.85,2.66-.51.51-1.36.76-2.57.76h-13.96v46.65c0,1.2-.29,2.09-.85,2.66-.51.51-1.36.76-2.57.76ZM228.95,95.8c0,2.91-.44,5.57-1.33,7.98-.82,2.34-2.34,4.37-4.56,6.08-2.15,1.65-5.13,2.94-8.93,3.89s-8.65,1.43-14.54,1.43-10.74-.48-14.54-1.43-6.81-2.25-9.02-3.89c-2.15-1.71-3.67-3.74-4.56-6.08-.82-2.41-1.24-5.07-1.24-7.98v-47.02c0-1.2.25-2.06.76-2.56.57-.57,1.46-.86,2.66-.86h14.91c1.2,0,2.06.28,2.57.86.57.51.85,1.36.85,2.56v43.32c0,1.27.48,2.34,1.43,3.23.95.82,3.07,1.24,6.37,1.24s5.51-.41,6.46-1.24c.95-.89,1.43-1.96,1.43-3.23v-43.32c0-1.2.25-2.06.76-2.56.57-.57,1.46-.86,2.66-.86h14.44c1.2,0,2.06.28,2.57.86.57.51.85,1.36.85,2.56v47.02ZM52.27,196.75H20.25c-1.2,0-2.09-.25-2.66-.76-.51-.57-.76-1.46-.76-2.66v-61.56c0-1.2.25-2.06.76-2.57.57-.57,1.46-.85,2.66-.85h32.01c7.92,0,13.78,1.58,17.58,4.75,3.86,3.17,5.79,8.04,5.79,14.63v29.64c0,6.59-1.93,11.46-5.79,14.63-3.8,3.17-9.66,4.75-17.58,4.75ZM38.4,146.5v32.3h11.3c1.52,0,2.63-.38,3.33-1.14.76-.76,1.14-1.93,1.14-3.51v-23.09c0-1.58-.38-2.72-1.14-3.42-.7-.76-1.81-1.14-3.33-1.14h-11.3ZM103.86,196.75c-1.2,0-2.09-.25-2.66-.76-.51-.57-.76-1.46-.76-2.66v-11.31c0-1.2.25-2.06.76-2.56.57-.57,1.46-.86,2.66-.86h9.41v-31.92h-9.41c-1.2,0-2.09-.25-2.66-.76-.51-.57-.76-1.46-.76-2.66v-11.49c0-1.2.25-2.06.76-2.57.57-.57,1.46-.85,2.66-.85h40.47c1.2,0,2.06.28,2.57.85.57.51.86,1.36.86,2.57v11.49c0,1.2-.29,2.09-.86,2.66-.51.51-1.36.76-2.57.76h-9.21v31.92h9.21c1.2,0,2.06.29,2.57.86.57.51.86,1.36.86,2.56v11.31c0,1.2-.29,2.09-.86,2.66-.51.51-1.36.76-2.57.76h-40.47ZM231.68,178.8c0,2.91-.44,5.57-1.33,7.98-.82,2.34-2.34,4.37-4.56,6.08-2.15,1.65-5.16,2.95-9.03,3.9-3.8.95-8.65,1.43-14.54,1.43s-10.77-.48-14.63-1.43c-3.86-.95-6.9-2.25-9.12-3.9-2.15-1.71-3.67-3.74-4.56-6.08-.82-2.41-1.24-5.07-1.24-7.98v-32.4c0-2.91.41-5.54,1.24-7.88.89-2.41,2.41-4.46,4.56-6.18,2.22-1.71,5.26-3.04,9.12-3.99,3.86-.95,8.74-1.43,14.63-1.43s10.74.47,14.54,1.43c3.86.95,6.87,2.28,9.03,3.99,2.22,1.71,3.74,3.77,4.56,6.18.89,2.34,1.33,4.97,1.33,7.88v32.4ZM194.25,175.38c0,1.27.48,2.34,1.43,3.23.95.82,3.13,1.24,6.55,1.24s5.61-.41,6.56-1.24c.95-.89,1.43-1.96,1.43-3.23v-25.55c0-1.2-.48-2.22-1.43-3.04-.95-.89-3.14-1.33-6.56-1.33s-5.6.44-6.55,1.33c-.95.82-1.43,1.84-1.43,3.04v25.55Z"/><polygon class="cls-1" points="84.34 24.47 69.16 24.49 69.16 24.5 84.36 24.5 84.34 24.47"/><path class="cls-1" d="M76.96,6.49c-.18.01-.4-.06-.48.14-.81,2.13-1.62,4.29-2.48,6.38-.71,1.73-1.51,3.42-2.21,5.15h9.96l-4.79-11.68Z"/><path class="cls-1" d="M122.82,10.55c0-2.7-1.2-3.95-3.94-4.13h-10.67v8.32h10.67c2.9-.17,3.95-1.35,3.94-4.19Z"/><path class="cls-1" d="M38.03,19.33h-7.61v5.17h11.03c-1.13-1.73-2.27-3.46-3.42-5.17Z"/><path class="cls-1" d="M119.18,24.4c-1.44-2.69-2.09-4.15-5.5-4.34-1.79-.1-3.67.08-5.47,0v4.44h11.02s-.04-.07-.05-.1Z"/><path class="cls-1" d="M198.71,31H27.25c-11.44,0-20.75,9.31-20.75,20.75v134c0,11.44,9.31,20.75,20.75,20.75h195c11.44,0,20.75-9.31,20.75-20.75V51.75c0-11.44-9.31-20.75-20.75-20.75h-23.54Z"/><path class="cls-3" d="M108.21,20.06c1.8.08,3.68-.1,5.47,0,3.41.19,4.06,1.65,5.5,4.34.02.03.04.07.05.1h7.9l-.75-1.44c-.94-1.63-1.84-3.2-3.61-4.03-.22-.1-1.41-.46-1.43-.54-.01-.05,0-.32,0-.33.03-.03.69-.05.82-.07,4.77-.73,7.75-3.35,7.86-8.33.16-7.03-5.49-9.66-11.7-9.69h-17.02s0,24.43,0,24.43h6.9v-4.44ZM108.21,6.43h10.67c2.75.18,3.94,1.42,3.94,4.13,0,2.84-1.04,4.02-3.94,4.19h-10.67V6.43Z"/><path class="cls-3" d="M154.47,6.43h11.37V.16s-.09-.09-.09-.09h-29.39s-.09.09-.09.09v6.27h11.37v18.07h6.84V6.43Z"/><path class="cls-3" d="M231.4,25.07h-3.6c1.23.26,2.43.6,3.6,1.02v-1.02Z"/><polygon class="cls-3" points="213.19 .07 206.44 .07 206.37 24.5 213.19 24.5 213.19 .07"/><path class="cls-3" d="M179.71,18.78h18.33v-6.3h-18.33v-6.05h19V.16s-.09-.09-.09-.09h-25.73l-.07,24.43h6.89v-5.72Z"/><path class="cls-3" d="M69.16,24.49l15.18-.02v.03h7.87c-3.48-8.07-6.99-16.12-10.42-24.2-.08-.16-.19-.25-.38-.23-3.01.17-6.25-.22-9.23,0-.09,0-.26.01-.32.08l-10.38,24.35h7.68ZM74.01,13.01c.86-2.09,1.67-4.25,2.48-6.38.08-.2.3-.13.48-.14l4.79,11.68h-9.96c.7-1.73,1.5-3.43,2.21-5.15Z"/><path class="cls-3" d="M30.42,24.5v-5.17h7.61c1.15,1.72,2.29,3.45,3.42,5.17h8.2l-5.95-8.99,4.32-6.28c.94-1.36,1.9-2.76,2.84-4.14,1.13-1.64,2.29-3.25,3.42-4.9.06-.03-.06-.12-.06-.12h-8.07c-2.79,4.09-5.4,8.31-8.19,12.41h-7.55V.07h-6.81l-.07,24.69c1.21-.17,2.45-.26,3.71-.26h3.17Z"/><path class="cls-2" d="M227.81,25.07c-1.79-.37-3.65-.57-5.56-.57h-9.06v.57h14.61Z"/><path class="cls-2" d="M231.4,26.09v4.91h-9.15c11.44,0,20.75,9.31,20.75,20.75v134c0,11.44-9.31,20.75-20.75,20.75H27.25c-11.44,0-20.75-9.31-20.75-20.75V51.75c0-11.44,9.31-20.75,20.75-20.75h-3.73l.02-6.24C10.26,26.58,0,37.98,0,51.75v134c0,15.03,12.22,27.25,27.25,27.25h195c15.03,0,27.25-12.22,27.25-27.25V51.75c0-11.82-7.56-21.89-18.1-25.66Z"/><rect class="cls-2" x="101.31" y="24.5" width="6.9" height="6.5"/><path class="cls-2" d="M121.99,29.84c.19.37.42.77.52,1.16h8.01l-3.38-6.5h-7.9c.94,1.76,1.84,3.55,2.76,5.34Z"/><rect class="cls-2" x="147.63" y="24.5" width="6.84" height="6.5"/><path class="cls-2" d="M222.25,31h9.15v-4.91c-1.17-.42-2.37-.76-3.6-1.02h-14.61v-.57h-6.82l-.02,6.5h15.9Z"/><polygon class="cls-2" points="198.71 31 198.71 25.07 179.71 25.07 179.71 24.5 172.82 24.5 172.8 31 198.71 31"/><polygon class="cls-2" points="66.42 31 69.16 24.5 61.49 24.5 58.72 31 66.42 31"/><path class="cls-2" d="M87.13,31h7.82c-.13-.43-.3-.86-.48-1.27-.75-1.75-1.51-3.49-2.26-5.23h-7.86l2.77,6.5Z"/><path class="cls-2" d="M27.25,31h3.17v-6.5h-3.17c-1.26,0-2.5.09-3.71.26l-.02,6.24h3.73Z"/><path class="cls-2" d="M45.7,31h8.25l-4.3-6.5h-8.2c1.42,2.16,2.83,4.33,4.25,6.5Z"/></svg>